<svg xmlns="http://www.w3.org/2000/svg" viewBox="0 0 343.92 251.15"><defs><style>.cls-1{fill:#fff;fill-rule:evenodd;}</style></defs><g id="Layer_2" data-name="Layer 2"><g id="Layer_1-2" data-name="Layer 1"><polygon class="cls-1" points="84.46 251.15 99.87 251.15 99.87 0 84.46 0 84.46 251.15 84.46 251.15"/><polygon class="cls-1" points="84.46 251.15 99.87 251.15 99.87 0 84.46 0 84.46 251.15 84.46 251.15"/><path class="cls-1" d="M21.25,91.46C21.52,75.48,49,75,49,90.72l.27,13.6H70.17V91.75c1.33-42-70.7-42-70.17-1v72.36c-.53,41,71.57,42,70.25,0V147.92H49v16.23c0,15.7-27.41,16-27.67,0V90.72l0,.74Z"/><path class="cls-1" d="M141.08,75.09s3.66-5.38,13.25-10.71a25.16,25.16,0,0,1,22.34-.8c9.58,4.26,13.23,14.54,13.91,26v85.69h13.5V191H169.36V88.6c0-14.92-25.18-14.44-25.43.72l0-.72V191H112.82V175.28l9.83,0v-96L111,79.28V63.58H141l.05,11.51Z"/><path class="cls-1" d="M298.25,162.73c.7,11.51,4.34,21.79,13.91,26.05a31.28,31.28,0,0,0,11.33,2.31c3.47,0,20.43,0,20.43,0V175.31s-8.57-.11-13.1-.07c-5.76.07-10.75-2.68-11.16-10.81l0-85,0-.14h20.47V63.84H319.62l.07-.26v-33H298.26V162.73Z"/><path class="cls-1" d="M259.68,147.92v16.23c0,15.7-27.39,16-27.66,0v-33.8l45,.05a3.91,3.91,0,0,0,3.92-3.89l0-34.76c1.32-42-70.71-42-70.17-1v72.36c-.54,41,71.56,42,70.24,0V147.92ZM232,90.62c.34-15.74,27.66-15.6,27.66.1l-.07,23.68H232V90.62Z"/></g></g></svg>