<svg xmlns="http://www.w3.org/2000/svg" viewBox="0 0 150.66 37.75"><defs><style>.cls-1{fill:#fff;fill-rule:evenodd;}</style></defs><g id="Layer_2" data-name="Layer 2"><g id="Layer_1-2" data-name="Layer 1"><path class="cls-1" d="M91.78,10.74a12.41,12.41,0,0,0-6.23,1.55c0-5.54,0-10.56.17-12.29L74.12,2.08v1l1.21.17c1.56.35,2.08,1.21,2.42,3.29.35,4.16.18,26.32,0,30a45.26,45.26,0,0,0,9.7,1.21c9.18,0,14.72-5.71,14.72-14.72,0-7.1-4.5-12.29-10.39-12.29Zm-4,25.11a7.47,7.47,0,0,1-2.08-.18C85.55,33.25,85.37,23,85.55,14a7.54,7.54,0,0,1,2.59-.52C92,13.51,94,18,94,23.55c0,6.93-2.6,12.3-6.23,12.3Z"/><path class="cls-1" d="M30.48.69H0V2.25l1.73.17c2.25.35,3.12,1.74,3.46,5a200.23,200.23,0,0,1,0,22.86c-.34,3.28-1.21,4.84-3.46,5L0,35.67v1.39H19.57V35.67l-2.08-.34c-2.25-.18-3.12-1.74-3.46-5-.18-2.26-.35-5.89-.35-10.4l4.16.18c2.59,0,3.81,2.08,4.33,5h1.55V12.81H22.17c-.52,2.95-1.74,5-4.33,5L13.68,18c0-5.89.17-11.43.35-14.72h6.06c4.67,0,7.1,2.94,8.83,8.14l1.73-.52L30.48.69Z"/><path class="cls-1" d="M40.35,10.39c8.66,0,13,5.89,13,13.68,0,7.45-4.85,13.68-13.51,13.68s-13-5.89-13-13.68c0-7.45,4.85-13.68,13.51-13.68Zm-.52,1.73c-3.81,0-4.85,5.2-4.85,12,0,6.58,1.73,12,5.2,12,4,0,5-5.2,5-12,0-6.58-1.73-12-5.37-12Z"/><path class="cls-1" d="M104.42,24.24c0-7.1,4.5-13.85,13.34-13.85,7.27,0,10.73,5.37,10.73,12.47h-16.1c-.18,6.41,2.94,11.08,9.18,11.08a8.88,8.88,0,0,0,5.88-1.9l.7.86a13,13,0,0,1-10.39,4.85c-7.8,0-13.34-5.54-13.34-13.51Zm8-3.29,8.14-.17c0-3.46-.52-8.66-3.47-8.66S112.56,17,112.39,21Z"/><path class="cls-1" d="M149.1,11.78a21.12,21.12,0,0,0-8-1.39c-6.4,0-10.39,3.81-10.39,8.31s2.95,6.41,7.1,7.8c4.33,1.55,5.54,2.77,5.54,4.84a4,4,0,0,1-4.33,4c-3.28,0-5.71-1.91-7.61-7.1l-1.22.34.18,7.62a27.15,27.15,0,0,0,9.17,1.56c6.76,0,11.09-3.46,11.09-8.83,0-3.64-1.91-5.71-6.41-7.45-4.85-1.9-6.58-3.11-6.58-5.37a3.6,3.6,0,0,1,3.64-3.81c3.11,0,5.19,1.91,6.75,6.59l1.21-.35-.17-6.75Z"/><path class="cls-1" d="M75.85,11.08c-2.95-1.73-8.14-.86-10.91,5.37l.17-6.06-11.6,2.25v1l1.21.17c1.56.18,2.25,1,2.43,3.29a148.43,148.43,0,0,1,0,15.07c-.18,2.08-.87,3.12-2.43,3.29l-1.21.17v1.39h16.1V35.67l-2.07-.17c-1.74-.17-2.26-1.21-2.43-3.29a125.91,125.91,0,0,1-.17-14c.86-1.21,4.67-2.25,8.14,0l2.77-7.1Z"/></g></g></svg>