<?xml version="1.0" encoding="utf-8"?>
<!-- Generator: Adobe Illustrator 25.3.1, SVG Export Plug-In . SVG Version: 6.00 Build 0)  -->
<svg version="1.1" id="Layer_1" xmlns="http://www.w3.org/2000/svg" xmlns:xlink="http://www.w3.org/1999/xlink" x="0px" y="0px"
	 viewBox="0 0 330 60" style="enable-background:new 0 0 330 60;" xml:space="preserve">
<style type="text/css">
	.st0{fill:#FFFFFF;}
</style>
<path class="st0" d="M45.5,10v7.9h-1.6c-0.8-0.3-1.1,0.3-1.1,0.8c-2.4,8.2-5,16.1-7.7,24.3c-0.5,1.8-1.1,3.7-1.8,5.5
	c0,0.3-0.5,0.5-0.8,0.5H20.4l-0.3-0.8l-9.2-29.6c-0.3-0.8-0.5-0.8-1.3-0.8H8V10h16.9v7.9h-3.4L27,39.9h0.3l6.1-21.9h-3.4V10H45.5z
	 M72.2,20.6h11.4l0.3,4c0.8-0.8,1.3-1.6,1.8-2.1c3.2-2.6,6.9-3.2,10.8-1.9c2.9,1.1,4.2,3.4,4.2,6.6v14h2.4v7.9H90.4V31.4
	c0-1.6-0.5-2.4-1.6-2.6c-1.3-0.3-2.4,0-3.2,1.1l-0.5,0.8l-0.3,0.8v9.8h1.8v7.9H72.2v-7.9h2.1V28.5h-2.1L72.2,20.6z M141.4,28.2h-1.9
	v-7.9H152v20.9h2.4v7.9h-11.6v-2.9c-0.5,0.5-0.8,1.1-1.3,1.3c-2.9,2.6-7.9,3.2-11.4,1.6c-2.6-1.3-4-3.4-4-6.3l-0.3-13.2v-1.1h-2.4
	v-7.9h12.7v16.9c0,0.8,0,1.6,0.3,2.1c0.3,1.1,1.3,1.6,2.4,1.6s1.9-0.5,2.4-1.6c0.3-0.3,0.3-0.8,0.3-1.3L141.4,28.2z M70.4,36.7H52.7
	c0,1.6,0,3.2,0.8,4.5c0.5,1.1,1.8,1.6,2.9,1.6s2.4-0.5,2.9-1.8c0.3-0.5,0.3-1.1,0.5-1.8h9.8c-0.3,3.2-1.6,5.8-4.2,7.7
	c-1.8,1.3-3.9,2.1-6.1,2.4c-2.9,0.5-6.1,0.3-9-0.5c-4-1.3-6.6-4-7.7-7.7c-1.3-4.2-1.3-8.5,0-12.7c1.6-5,5.3-7.9,10.6-8.7
	c2.4-0.3,4.8-0.3,7.1,0.5c5.3,1.6,8.2,5,9.2,10.6C70.1,32.7,70.1,34.6,70.4,36.7L70.4,36.7z M52.9,31.2h6.9c0-1.6,0-2.9-1.6-3.7
	c-1.3-0.8-2.6-0.8-3.7,0C52.9,28.2,52.9,29.6,52.9,31.2z M208,36.7h-17.7c0,1.6,0,3.2,0.8,4.5s1.9,1.6,3.2,1.6s2.4-0.8,2.9-1.8
	l0.5-1.6h9.8c-0.5,5.8-4.8,9.8-10.6,10.3c-2.9,0.3-5.6,0.3-8.2-0.8c-4-1.3-6.6-4-7.9-7.9c-1.3-4.2-1.3-8.2,0-12.4
	c1.6-5.3,5.6-7.9,10.8-8.7c2.4-0.3,5-0.3,7.4,0.5c5,1.6,7.7,5,8.7,9.8C208,32.5,208,34.6,208,36.7L208,36.7z M190.8,31.2h6.9
	c0-2.9-1.3-4.5-3.7-4.2C191.9,27.2,190.6,28.8,190.8,31.2z M104.4,20.3h3.2v-5.6c0-1.1,0.3-1.3,1.3-1.6l8.2-1.9v9h4.5v7.9h-4.5v11.1
	c0.3,1.8,1.6,2.6,3.2,2.4c0.3,0,0.5,0,1.1-0.3v5c0,2.4,0,2.4-2.4,2.6s-4.8,0.5-7.4,0c-3.4-0.8-5-2.9-5-6.3V28.2h-2.4
	C104.4,25.9,104.4,23.2,104.4,20.3L104.4,20.3z M156.5,49.1v-7.9h2.4V28.5h-2.4v-7.9h11.1c0,1.3,0.3,2.9,0.3,4.5
	c0.3-0.3,0.3-0.5,0.3-0.8c0.8-2.4,2.6-3.7,5-4h3.7c0.3,0,0.5,0.2,0.5,0.5v8.7c-1.3,0-2.9-0.3-4.2,0c-2.9,0.5-4.2,2.1-4.5,5v6.3h3.2
	v7.9C167.1,49.1,161.8,49.1,156.5,49.1L156.5,49.1z M230.8,10.3c1.6,0.3,3.2,0.3,4.5,0.8c6.1,1.6,9.2,9,6.1,14.5
	c-0.8,1.3-1.9,2.1-3.2,2.9c-0.5,0.3-1.1,0.5-1.9,1.1c0.3,0.3,0.5,0.3,0.8,0.3c4.2,1.3,6.1,4.5,6.3,8.5c0.5,5.8-3.2,10-9,10.6
	c-1.9,0.3-3.7,0.3-5.3,0.3H211v-7.9h3.4V17.9H211V10C217.9,10.3,224.2,10.3,230.8,10.3L230.8,10.3z M225,33.5v7.7
	c0,0.3,0.2,0.5,0.5,0.5h4.5c1.1,0,2.1-0.5,2.6-1.6c1.3-2.4,0-5.5-2.6-6.1C228.5,33.5,226.9,33.5,225,33.5z M225,26.1
	c1.6,0,2.9,0,4.5-0.3c1.9-0.3,2.9-1.9,2.9-3.7s-1.1-3.4-2.6-3.7s-3.2-0.3-4.8-0.3L225,26.1z M321.7,28.8h-4c-0.3,0-0.5,0.2-0.5,0.5
	v10c0,2.1,1.3,3.2,3.7,2.6h0.5v6.3c0,0.5,0,0.8-0.5,0.8c-2.9,0.5-5.8,0.8-9,0.3c-3.4-0.8-5-2.6-5-6.1V28.5h-1
	c-1.6,0-1.3,0.3-1.3-1.3v-6.6h3.2v-5.3c0-1.9-0.3-1.6,1.6-1.9c2.7-0.5,5.3-1.1,7.9-1.9v9h4.8C321.8,23.5,321.8,26.1,321.7,28.8
	L321.7,28.8z M290.6,31.7V29c0-1.6-1.1-2.6-2.4-2.6s-2.6,1.1-2.6,2.4v1.1H276c-0.3-3.7,1.6-6.9,5-8.5c5-2.1,10.3-2.1,15.3,0.3
	c3.2,1.6,4.8,4,4.8,7.4v11.9h2.4v7.9h-11.9c0-1.1-0.3-1.8-0.3-3.2c-0.3,0.3-0.5,0.5-0.5,0.8c-3.2,3.7-9,3.7-12.2,2.1
	c-2.4-1.3-3.4-3.7-3.7-6.3c-0.3-5.8,2.6-9.5,8.7-10.6l6.3-0.5C289.8,31.7,290,31.7,290.6,31.7L290.6,31.7z M290.6,36.7h-2.4
	c-2.4,0.3-3.4,2.1-3.2,4.2c0.3,1.8,1.9,2.9,3.7,2.1c1.1-0.3,1.6-1.1,1.9-2.1L290.6,36.7z M273.7,37h-17.7c0,1.8,0,3.4,1.1,4.8
	c0.8,1.1,1.9,1.3,3.2,1.3s2.1-0.8,2.6-1.8l0.5-1.6h9.8c-0.3,3.2-1.6,5.8-4.2,7.7c-3.2,2.4-6.6,2.9-10.3,2.6c-1.6,0-2.9-0.3-4.5-0.8
	c-4-1.1-6.3-3.7-7.7-7.4c-1.3-4.5-1.6-9,0.3-13.5c1.9-4.8,5.6-7.4,10.6-7.9c2.4-0.3,5,0,7.4,0.5c5,1.6,7.7,5.3,8.7,10.3
	C273.4,33,273.7,34.9,273.7,37L273.7,37z M263.3,31.7c0-1.6-0.3-3.2-1.6-4s-2.6-0.8-4,0.3c-1.1,0.8-1.3,2.1-1.3,3.7H263.3z"/>
</svg>
