<svg width="37" height="32" viewBox="0 0 37 32" fill="none" xmlns="http://www.w3.org/2000/svg">
<path d="M13.6992 30.8828C12.6055 31.4297 11.5312 31.7031 10.4766 31.7031C8.95312 31.7031 7.39062 31.2734 5.78906 30.4141C4.22656 29.5547 2.89844 28.207 1.80469 26.3711C0.710938 24.5352 0.164062 22.25 0.164062 19.5156C0.164062 15.7266 1.35547 12.0742 3.73828 8.55859C6.16016 5.04297 10.7695 2.38672 17.5664 0.589842C17.8287 0.818587 18 0.999998 17.5664 1.5C14.5 4 12.5273 6.9375 10.7695 8.85156C9.05078 10.7266 8.19141 12.6992 8.19141 14.7695C8.19141 16.4492 8.83594 17.9141 10.125 19.1641C11.4141 20.4141 13.0547 21.0391 15.0469 21.0391C15.4375 21.0391 16.0234 21 16.8047 20.9219C17.3516 22.3672 17.625 23.5781 17.625 24.5547C17.625 26.0391 17.2539 27.3281 16.5117 28.4219C15.7695 29.4766 14.832 30.2969 13.6992 30.8828ZM32.0977 30.8828C31.0039 31.4297 29.9297 31.7031 28.875 31.7031C27.3516 31.7031 25.7891 31.2734 24.1875 30.4141C22.625 29.5547 21.2969 28.207 20.2031 26.3711C19.1484 24.5352 18.6211 22.25 18.6211 19.5156C18.6211 15.7266 19.8125 12.0742 22.1953 8.55859C24.6172 5.04297 29.2266 2.38672 36.0234 0.589842C36.5 0.5 36.7767 1.44903 36.0234 2C32.8654 4.30984 30.7148 6.64844 29 8.5C27.2812 10.375 26.707 12.6992 26.707 14.7695C26.707 16.4883 27.332 17.9727 28.582 19.2227C29.8711 20.4336 31.5117 21.0391 33.5039 21.0391C33.8555 21.0391 34.4219 21 35.2031 20.9219C35.75 22.3672 36.0234 23.5781 36.0234 24.5547C36.0234 26.0391 35.6523 27.3281 34.9102 28.4219C34.168 29.4766 33.2305 30.2969 32.0977 30.8828Z" fill="#70CFFE"/>
</svg>
